<svg width="32" height="32" viewBox="0 0 32 32" fill="none" xmlns="http://www.w3.org/2000/svg">
<g clip-path="url(#clip0_239_524)">
<path d="M16 32C24.8365 32 32 24.8365 32 16C32 7.16347 24.8365 0 16 0C7.16347 0 0 7.16347 0 16C0 24.8365 7.16347 32 16 32Z" fill="#2CB742"/>
<path fill-rule="evenodd" clip-rule="evenodd" d="M15.9959 22.5518H15.9932C14.8874 22.5514 13.8009 22.274 12.8358 21.7476L9.33334 22.6663L10.2707 19.2427C9.69246 18.2407 9.38825 17.1041 9.38871 15.9396C9.3902 12.2967 12.3541 9.33301 15.9958 9.33301C17.7633 9.33377 19.4222 10.0218 20.6696 11.2707C21.917 12.5195 22.6036 14.1795 22.6029 15.9448C22.6014 19.5868 19.6387 22.5503 15.9959 22.5518ZM12.9981 20.5515L13.1986 20.6705C14.0418 21.1708 15.0083 21.4356 15.9937 21.436H15.9959C19.0226 21.436 21.4861 18.9724 21.4873 15.9444C21.4879 14.4771 20.9173 13.0974 19.8804 12.0594C18.8436 11.0214 17.4648 10.4495 15.998 10.449C12.969 10.449 10.5055 12.9123 10.5043 15.94C10.5039 16.9776 10.7942 17.9882 11.3439 18.8625L11.4745 19.0703L10.9197 21.0967L12.9981 20.5515ZM19.0984 17.3673C19.2135 17.423 19.2913 17.4605 19.3245 17.516C19.3657 17.5848 19.3657 17.9153 19.2282 18.301C19.0906 18.6866 18.431 19.0386 18.1139 19.086C17.8295 19.1285 17.4695 19.1462 17.0741 19.0205C16.8343 18.9445 16.5268 18.8429 16.1329 18.6728C14.5853 18.0045 13.5394 16.5045 13.3417 16.221C13.3278 16.2011 13.3182 16.1873 13.3127 16.18L13.3115 16.1783C13.2241 16.0617 12.6387 15.2806 12.6387 14.4723C12.6387 13.7118 13.0122 13.3133 13.1841 13.1298C13.1959 13.1172 13.2068 13.1056 13.2165 13.0951C13.3678 12.9298 13.5466 12.8885 13.6567 12.8885C13.7667 12.8885 13.8769 12.8895 13.9731 12.8943C13.985 12.8949 13.9973 12.8948 14.0101 12.8948C14.1063 12.8942 14.2262 12.8935 14.3446 13.1777C14.3901 13.2871 14.4567 13.4492 14.5269 13.6203C14.669 13.9661 14.8259 14.3482 14.8535 14.4035C14.8948 14.4861 14.9223 14.5825 14.8673 14.6927C14.859 14.7092 14.8514 14.7248 14.8441 14.7398C14.8028 14.8241 14.7724 14.8862 14.7022 14.9681C14.6746 15.0003 14.6461 15.035 14.6176 15.0698C14.5608 15.1389 14.504 15.2081 14.4546 15.2573C14.3719 15.3397 14.2859 15.429 14.3822 15.5942C14.4785 15.7595 14.8098 16.3001 15.3006 16.7379C15.8282 17.2084 16.2867 17.4073 16.5191 17.5081C16.5645 17.5278 16.6012 17.5438 16.6282 17.5573C16.7932 17.6399 16.8895 17.6261 16.9859 17.516C17.0822 17.4058 17.3985 17.0339 17.5085 16.8686C17.6186 16.7034 17.7287 16.731 17.88 16.786C18.0314 16.8411 18.843 17.2405 19.0081 17.3231C19.0403 17.3392 19.0704 17.3538 19.0984 17.3673Z" fill="white"/>
</g>
<defs>
<clipPath id="clip0_239_524">
<rect width="32" height="32" fill="white"/>
</clipPath>
</defs>
</svg>
