<svg width="18" height="18" viewBox="0 0 18 18" fill="none" xmlns="http://www.w3.org/2000/svg">
<path d="M16.2217 12.2686L13.6817 11.9786C13.0717 11.9086 12.4717 12.1186 12.0417 12.5486L10.2017 14.3886C7.3717 12.9486 5.05174 10.6386 3.61174 7.79856L5.46174 5.94855C5.89174 5.51855 6.10174 4.91855 6.03174 4.30855L5.74174 1.78855C5.62174 0.778555 4.77174 0.0185547 3.75174 0.0185547H2.02174C0.89174 0.0185547 -0.0482601 0.958555 0.0217399 2.08855C0.55174 10.6286 7.3817 17.4486 15.9117 17.9786C17.0417 18.0486 17.9817 17.1086 17.9817 15.9786V14.2486C17.9917 13.2386 17.2317 12.3886 16.2217 12.2686Z" fill="#E84237"/>
</svg>
